<svg preserveAspectRatio="none" overflow="visible" style="display: block;" width="7064.86" height="5575.65" viewBox="0 0 7064.86 5575.65" fill="none" xmlns="http://www.w3.org/2000/svg">
<g id="Vector 118" filter="url(#filter0_f_0_42)">
<path d="M3394.66 1608.8C2714.23 1880.08 647.79 3654.06 1503.13 4125.47C2358.48 4596.87 3933.18 3854.08 4613.61 3423.76C5488.41 2722.28 7204.89 486.354 3394.66 1608.8Z" fill="#32B0D3"/>
<path d="M3394.66 1608.8C2714.23 1880.08 647.79 3654.06 1503.13 4125.47C2358.48 4596.87 3933.18 3854.08 4613.61 3423.76C5488.41 2722.28 7204.89 486.354 3394.66 1608.8Z" fill="#171717" fill-opacity="0.8"/>
<path d="M3394.66 1608.8C2714.23 1880.08 647.79 3654.06 1503.13 4125.47C2358.48 4596.87 3933.18 3854.08 4613.61 3423.76C5488.41 2722.28 7204.89 486.354 3394.66 1608.8Z" stroke="black" stroke-width="10"/>
</g>
<defs>
<filter id="filter0_f_0_42" x="-7.15256e-06" y="5.24521e-06" width="7064.86" height="5575.65" filterUnits="userSpaceOnUse" color-interpolation-filters="sRGB">
<feFlood flood-opacity="0" result="BackgroundImageFix"/>
<feBlend mode="normal" in="SourceGraphic" in2="BackgroundImageFix" result="shape"/>
<feGaussianBlur stdDeviation="647" result="effect1_foregroundBlur_0_42"/>
</filter>
</defs>
</svg>
