<svg preserveAspectRatio="none" overflow="visible" style="display: block;" width="1060" height="562" viewBox="0 0 1060 562" fill="none" xmlns="http://www.w3.org/2000/svg">
<g id="Union" style="mix-blend-mode:overlay">
<path d="M282.383 0.5C388.413 0.5 483.614 59.2462 531.756 145.075C580.059 59.8917 672.063 2.34863 777.617 2.34863C933.293 2.34874 1059.5 127.515 1059.5 281.924C1059.5 436.333 933.293 561.5 777.617 561.5C670.822 561.5 577.898 502.595 530.071 415.757L524.468 423.383C475.244 505.004 385.247 559.651 282.383 559.651C126.707 559.651 0.500157 434.485 0.5 280.076C0.5 125.667 126.707 0.500087 282.383 0.5ZM777.617 18.1338C725.348 18.1338 682.032 29.2831 643.287 52.667C604.535 76.0554 570.323 111.703 536.298 160.753L536.294 160.759L536.289 160.765L383.698 367.282L383.687 367.299L383.673 367.313C358.982 395.676 322.342 413.645 281.445 413.646C207.101 413.646 146.819 354.265 146.819 281C146.819 207.735 207.101 148.354 281.445 148.354C355.79 148.355 416.071 207.735 416.071 281C416.071 287.423 415.606 293.74 414.71 299.92L467.567 228.004C444.365 148.389 370.2 90.2129 282.383 90.2129C176.007 90.213 89.667 175.573 89.667 281C89.667 386.427 176.007 471.787 282.383 471.787C352.862 471.787 414.549 434.315 448.154 378.361L448.167 378.34L448.183 378.319L511.14 294.311L558.797 229.47L591.811 183.064C626.995 118.124 697.969 74.4277 777.617 74.4277C892.887 74.4278 986.341 166.908 986.341 281C986.341 395.092 892.887 487.572 777.617 487.572C685.954 487.572 608.092 429.093 580.041 347.771L540.557 401.492C584.516 487.114 674.209 545.715 777.617 545.715C924.366 545.715 1043.49 427.7 1043.49 281.924C1043.49 136.148 924.366 18.1339 777.617 18.1338ZM282.383 16.2852C135.634 16.2852 16.5068 134.3 16.5068 280.076C16.507 425.852 135.634 543.866 282.383 543.866C375.756 543.866 457.949 496.087 505.386 423.777L505.391 423.77L505.392 423.769L505.401 423.754C505.408 423.744 505.419 423.728 505.433 423.708C505.46 423.668 505.501 423.608 505.555 423.529C505.663 423.372 505.823 423.139 506.028 422.839C506.44 422.239 507.037 421.371 507.777 420.296C509.259 418.146 511.317 415.169 513.626 411.862C518.242 405.252 523.864 397.315 527.869 392.033C533.101 385.135 538.643 377.827 543.092 371.813C545.316 368.806 547.266 366.125 548.766 363.982C550.273 361.828 551.305 360.248 551.715 359.426L551.734 359.388L551.76 359.354L586.569 311.992L586.571 311.989L663.226 209.562C687.151 172.751 729.024 148.355 776.679 148.354C851.023 148.354 911.305 207.735 911.305 281C911.305 354.265 851.023 413.646 776.679 413.646C702.334 413.645 642.053 354.265 642.053 281C642.053 274.346 642.552 267.807 643.512 261.416L591.799 331.773C614.259 412.526 688.984 471.787 777.617 471.787C883.993 471.787 970.333 386.427 970.333 281C970.333 175.573 883.993 90.213 777.617 90.2129C707.157 90.2129 644.777 127.663 611.166 183.588L611.154 183.607L611.142 183.626L549.072 268.515C549.073 268.535 549.075 268.556 549.076 268.579C549.079 268.646 549.082 268.728 549.085 268.818C549.091 269 549.096 269.222 549.101 269.444C549.105 269.667 549.108 269.891 549.109 270.073C549.11 270.164 549.111 270.247 549.11 270.314C549.11 270.348 549.11 270.378 549.109 270.405C549.109 270.419 549.109 270.432 549.108 270.444C549.108 270.456 549.107 270.469 549.106 270.481C549.106 270.488 549.106 270.494 549.105 270.501C549.105 270.508 549.104 270.517 549.103 270.526C549.102 270.531 549.101 270.536 549.101 270.542C549.1 270.548 549.098 270.556 549.097 270.564C549.095 270.573 549.093 270.584 549.09 270.598C549.088 270.603 549.085 270.616 549.083 270.622C549.081 270.63 549.076 270.646 549.072 270.655C549.068 270.666 549.057 270.691 549.051 270.704C549.042 270.721 549.019 270.757 549.005 270.777C548.985 270.803 548.931 270.857 548.897 270.884C548.85 270.915 548.734 270.962 548.666 270.976C548.593 270.979 548.457 270.958 548.396 270.935C548.349 270.91 548.275 270.856 548.246 270.829C548.226 270.807 548.193 270.767 548.181 270.748C548.172 270.733 548.156 270.706 548.15 270.693C548.146 270.683 548.138 270.665 548.135 270.656C548.132 270.649 548.128 270.636 548.126 270.63C548.121 270.615 548.117 270.602 548.115 270.594C548.113 270.585 548.112 270.577 548.11 270.57C548.109 270.564 548.108 270.559 548.107 270.554C548.106 270.544 548.104 270.535 548.104 270.527C548.103 270.52 548.101 270.512 548.101 270.506C548.099 270.493 548.098 270.479 548.097 270.465C548.094 270.437 548.092 270.403 548.09 270.364C548.085 270.285 548.079 270.175 548.072 270.031C548.07 269.988 548.068 269.941 548.065 269.891L448.137 406.561L448.128 406.572C409.979 455.819 349.927 487.572 282.383 487.572C167.113 487.572 73.6592 395.092 73.6592 281C73.6592 166.908 167.113 74.4278 282.383 74.4277C373.26 74.4277 450.572 131.908 479.227 212.142L518.506 158.699C474.217 74.0617 385.061 16.2852 282.383 16.2852ZM281.445 164.141C215.927 164.141 162.826 216.467 162.826 281C162.826 345.533 215.927 397.859 281.445 397.859C346.964 397.859 400.063 345.533 400.063 281C400.063 216.467 346.964 164.141 281.445 164.141ZM776.679 164.141C711.161 164.141 658.061 216.467 658.061 281C658.061 345.533 711.161 397.859 776.679 397.859C842.197 397.859 895.298 345.533 895.298 281C895.298 216.467 842.197 164.141 776.679 164.141Z" fill="#1E1E1E"/>
<path d="M282.383 0.5C388.413 0.5 483.614 59.2462 531.756 145.075C580.059 59.8917 672.063 2.34863 777.617 2.34863C933.293 2.34874 1059.5 127.515 1059.5 281.924C1059.5 436.333 933.293 561.5 777.617 561.5C670.822 561.5 577.898 502.595 530.071 415.757L524.468 423.383C475.244 505.004 385.247 559.651 282.383 559.651C126.707 559.651 0.500157 434.485 0.5 280.076C0.5 125.667 126.707 0.500087 282.383 0.5ZM777.617 18.1338C725.348 18.1338 682.032 29.2831 643.287 52.667C604.535 76.0554 570.323 111.703 536.298 160.753L536.294 160.759L536.289 160.765L383.698 367.282L383.687 367.299L383.673 367.313C358.982 395.676 322.342 413.645 281.445 413.646C207.101 413.646 146.819 354.265 146.819 281C146.819 207.735 207.101 148.354 281.445 148.354C355.79 148.355 416.071 207.735 416.071 281C416.071 287.423 415.606 293.74 414.71 299.92L467.567 228.004C444.365 148.389 370.2 90.2129 282.383 90.2129C176.007 90.213 89.667 175.573 89.667 281C89.667 386.427 176.007 471.787 282.383 471.787C352.862 471.787 414.549 434.315 448.154 378.361L448.167 378.34L448.183 378.319L511.14 294.311L558.797 229.47L591.811 183.064C626.995 118.124 697.969 74.4277 777.617 74.4277C892.887 74.4278 986.341 166.908 986.341 281C986.341 395.092 892.887 487.572 777.617 487.572C685.954 487.572 608.092 429.093 580.041 347.771L540.557 401.492C584.516 487.114 674.209 545.715 777.617 545.715C924.366 545.715 1043.49 427.7 1043.49 281.924C1043.49 136.148 924.366 18.1339 777.617 18.1338ZM282.383 16.2852C135.634 16.2852 16.5068 134.3 16.5068 280.076C16.507 425.852 135.634 543.866 282.383 543.866C375.756 543.866 457.949 496.087 505.386 423.777L505.391 423.77L505.392 423.769L505.401 423.754C505.408 423.744 505.419 423.728 505.433 423.708C505.46 423.668 505.501 423.608 505.555 423.529C505.663 423.372 505.823 423.139 506.028 422.839C506.44 422.239 507.037 421.371 507.777 420.296C509.259 418.146 511.317 415.169 513.626 411.862C518.242 405.252 523.864 397.315 527.869 392.033C533.101 385.135 538.643 377.827 543.092 371.813C545.316 368.806 547.266 366.125 548.766 363.982C550.273 361.828 551.305 360.248 551.715 359.426L551.734 359.388L551.76 359.354L586.569 311.992L586.571 311.989L663.226 209.562C687.151 172.751 729.024 148.355 776.679 148.354C851.023 148.354 911.305 207.735 911.305 281C911.305 354.265 851.023 413.646 776.679 413.646C702.334 413.645 642.053 354.265 642.053 281C642.053 274.346 642.552 267.807 643.512 261.416L591.799 331.773C614.259 412.526 688.984 471.787 777.617 471.787C883.993 471.787 970.333 386.427 970.333 281C970.333 175.573 883.993 90.213 777.617 90.2129C707.157 90.2129 644.777 127.663 611.166 183.588L611.154 183.607L611.142 183.626L549.072 268.515C549.073 268.535 549.075 268.556 549.076 268.579C549.079 268.646 549.082 268.728 549.085 268.818C549.091 269 549.096 269.222 549.101 269.444C549.105 269.667 549.108 269.891 549.109 270.073C549.11 270.164 549.111 270.247 549.11 270.314C549.11 270.348 549.11 270.378 549.109 270.405C549.109 270.419 549.109 270.432 549.108 270.444C549.108 270.456 549.107 270.469 549.106 270.481C549.106 270.488 549.106 270.494 549.105 270.501C549.105 270.508 549.104 270.517 549.103 270.526C549.102 270.531 549.101 270.536 549.101 270.542C549.1 270.548 549.098 270.556 549.097 270.564C549.095 270.573 549.093 270.584 549.09 270.598C549.088 270.603 549.085 270.616 549.083 270.622C549.081 270.63 549.076 270.646 549.072 270.655C549.068 270.666 549.057 270.691 549.051 270.704C549.042 270.721 549.019 270.757 549.005 270.777C548.985 270.803 548.931 270.857 548.897 270.884C548.85 270.915 548.734 270.962 548.666 270.976C548.593 270.979 548.457 270.958 548.396 270.935C548.349 270.91 548.275 270.856 548.246 270.829C548.226 270.807 548.193 270.767 548.181 270.748C548.172 270.733 548.156 270.706 548.15 270.693C548.146 270.683 548.138 270.665 548.135 270.656C548.132 270.649 548.128 270.636 548.126 270.63C548.121 270.615 548.117 270.602 548.115 270.594C548.113 270.585 548.112 270.577 548.11 270.57C548.109 270.564 548.108 270.559 548.107 270.554C548.106 270.544 548.104 270.535 548.104 270.527C548.103 270.52 548.101 270.512 548.101 270.506C548.099 270.493 548.098 270.479 548.097 270.465C548.094 270.437 548.092 270.403 548.09 270.364C548.085 270.285 548.079 270.175 548.072 270.031C548.07 269.988 548.068 269.941 548.065 269.891L448.137 406.561L448.128 406.572C409.979 455.819 349.927 487.572 282.383 487.572C167.113 487.572 73.6592 395.092 73.6592 281C73.6592 166.908 167.113 74.4278 282.383 74.4277C373.26 74.4277 450.572 131.908 479.227 212.142L518.506 158.699C474.217 74.0617 385.061 16.2852 282.383 16.2852ZM281.445 164.141C215.927 164.141 162.826 216.467 162.826 281C162.826 345.533 215.927 397.859 281.445 397.859C346.964 397.859 400.063 345.533 400.063 281C400.063 216.467 346.964 164.141 281.445 164.141ZM776.679 164.141C711.161 164.141 658.061 216.467 658.061 281C658.061 345.533 711.161 397.859 776.679 397.859C842.197 397.859 895.298 345.533 895.298 281C895.298 216.467 842.197 164.141 776.679 164.141Z" stroke="#1E1E1E"/>
</g>
</svg>
